<?xml version="1.0" encoding="UTF-8" standalone="no"?>
<!DOCTYPE svg PUBLIC "-//W3C//DTD SVG 1.1//EN"
 "http://www.w3.org/Graphics/SVG/1.1/DTD/svg11.dtd">
<!-- Generated by graphviz version 2.40.1 (20161225.0304)
 -->
<!-- Title: finite_state_machine Pages: 1 -->
<svg width="1736pt" height="1167pt"
 viewBox="0.00 0.00 1736.03 1166.73" xmlns="http://www.w3.org/2000/svg" xmlns:xlink="http://www.w3.org/1999/xlink">
<g id="graph0" class="graph" transform="scale(1 1) rotate(0) translate(4 1162.7331)">
<title>finite_state_machine</title>
<polygon fill="#ffffff" stroke="transparent" points="-4,4 -4,-1162.7331 1732.0323,-1162.7331 1732.0323,4 -4,4"/>
<!-- created -->
<g id="node1" class="node">
<title>created</title>
<ellipse fill="none" stroke="#000000" cx="102.2145" cy="-964.0211" rx="38.8292" ry="38.8292"/>
<ellipse fill="none" stroke="#000000" cx="102.2145" cy="-964.0211" rx="42.8208" ry="42.8208"/>
<text text-anchor="middle" x="102.2145" y="-959.8211" font-family="Times,serif" font-size="14.00" fill="#000000">created</text>
</g>
<!-- boleto_authentication -->
<g id="node2" class="node">
<title>boleto_authentication</title>
<ellipse fill="none" stroke="#000000" cx="386.472" cy="-1064.0211" rx="94.9245" ry="94.9245"/>
<text text-anchor="middle" x="386.472" y="-1059.8211" font-family="Times,serif" font-size="14.00" fill="#000000">boleto_authentication</text>
</g>
<!-- created&#45;&gt;boleto_authentication -->
<g id="edge8" class="edge">
<title>created&#45;&gt;boleto_authentication</title>
<path fill="none" stroke="#000000" d="M142.9416,-978.3487C180.511,-991.5654 237.8042,-1011.7208 287.3826,-1029.1621"/>
<polygon fill="#000000" stroke="#000000" points="286.2701,-1032.4809 296.8649,-1032.4979 288.5931,-1025.8776 286.2701,-1032.4809"/>
<text text-anchor="middle" x="248.0945" y="-1026.2211" font-family="Times,serif" font-size="14.00" fill="#000000">is_boleto</text>
</g>
<!-- create_invoice -->
<g id="node3" class="node">
<title>create_invoice</title>
<ellipse fill="none" stroke="#000000" cx="386.472" cy="-866.0211" rx="67.1734" ry="67.1734"/>
<text text-anchor="middle" x="386.472" y="-861.8211" font-family="Times,serif" font-size="14.00" fill="#000000">create_invoice</text>
</g>
<!-- created&#45;&gt;create_invoice -->
<g id="edge9" class="edge">
<title>created&#45;&gt;create_invoice</title>
<path fill="none" stroke="#000000" d="M142.9416,-949.9801C187.2565,-934.7022 259.0139,-909.9633 313.1827,-891.2882"/>
<polygon fill="#000000" stroke="#000000" points="314.4267,-894.5615 322.7399,-887.9933 312.1452,-887.9438 314.4267,-894.5615"/>
<text text-anchor="middle" x="248.0945" y="-925.2211" font-family="Times,serif" font-size="14.00" fill="#000000">is_cc</text>
</g>
<!-- boleto_authentication&#45;&gt;create_invoice -->
<g id="edge1" class="edge">
<title>boleto_authentication&#45;&gt;create_invoice</title>
<path fill="none" stroke="#000000" d="M386.472,-969.0558C386.472,-960.545 386.472,-951.9945 386.472,-943.6563"/>
<polygon fill="#000000" stroke="#000000" points="389.9721,-943.6077 386.472,-933.6077 382.9721,-943.6077 389.9721,-943.6077"/>
<text text-anchor="middle" x="375.072" y="-947.1334" font-family="Times,serif" font-size="14.00" fill="#000000">human_verified</text>
</g>
<!-- refused -->
<g id="node4" class="node">
<title>refused</title>
<ellipse fill="none" stroke="#000000" cx="1366.8521" cy="-1036.0211" rx="39.4042" ry="39.4042"/>
<text text-anchor="middle" x="1366.8521" y="-1031.8211" font-family="Times,serif" font-size="14.00" fill="#000000">refused</text>
</g>
<!-- boleto_authentication&#45;&gt;refused -->
<g id="edge2" class="edge">
<title>boleto_authentication&#45;&gt;refused</title>
<path fill="none" stroke="#000000" d="M481.324,-1065.7548C625.2132,-1067.7951 907.2271,-1069.4867 1146.3548,-1057.0211 1205.317,-1053.9475 1272.8693,-1047.0067 1317.4977,-1041.9431"/>
<polygon fill="#000000" stroke="#000000" points="1317.9584,-1045.4133 1327.4945,-1040.7967 1317.1608,-1038.4589 1317.9584,-1045.4133"/>
<text text-anchor="middle" x="881.0633" y="-1070.2211" font-family="Times,serif" font-size="14.00" fill="#000000">not_human</text>
</g>
<!-- capture_cc -->
<g id="node5" class="node">
<title>capture_cc</title>
<ellipse fill="#60afff" stroke="#000000" cx="1040.3925" cy="-995.0211" rx="52.7084" ry="52.7084"/>
<text text-anchor="middle" x="1040.3925" y="-990.8211" font-family="Times,serif" font-size="14.00" fill="#000000">capture_cc</text>
</g>
<!-- create_invoice&#45;&gt;capture_cc -->
<g id="edge5" class="edge">
<title>create_invoice&#45;&gt;capture_cc</title>
<path fill="none" stroke="#000000" d="M452.772,-879.1002C579.5737,-904.1146 854.8015,-958.4093 978.266,-982.7653"/>
<polygon fill="#000000" stroke="#000000" points="977.8238,-986.2455 988.3122,-984.7472 979.1787,-979.3778 977.8238,-986.2455"/>
<text text-anchor="middle" x="720.6429" y="-955.2211" font-family="Times,serif" font-size="14.00" fill="#000000">cc_authorized</text>
</g>
<!-- not_authorized -->
<g id="node7" class="node">
<title>not_authorized</title>
<ellipse fill="#ffbfc6" stroke="#000000" cx="1040.3925" cy="-855.0211" rx="68.9235" ry="68.9235"/>
<text text-anchor="middle" x="1040.3925" y="-850.8211" font-family="Times,serif" font-size="14.00" fill="#000000">not_authorized</text>
</g>
<!-- create_invoice&#45;&gt;not_authorized -->
<g id="edge6" class="edge">
<title>create_invoice&#45;&gt;not_authorized</title>
<path fill="none" stroke="#000000" d="M453.99,-864.8854C575.675,-862.8384 831.1678,-858.5406 961.0094,-856.3565"/>
<polygon fill="#000000" stroke="#000000" points="961.337,-859.8516 971.2766,-856.1838 961.2192,-852.8525 961.337,-859.8516"/>
<text text-anchor="middle" x="720.6429" y="-867.2211" font-family="Times,serif" font-size="14.00" fill="#000000">cc_not_authorized</text>
</g>
<!-- waiting_boleto_payment -->
<g id="node8" class="node">
<title>waiting_boleto_payment</title>
<ellipse fill="none" stroke="#000000" cx="720.6429" cy="-699.0211" rx="107.1072" ry="107.1072"/>
<text text-anchor="middle" x="720.6429" y="-694.8211" font-family="Times,serif" font-size="14.00" fill="#000000">waiting_boleto_payment</text>
</g>
<!-- create_invoice&#45;&gt;waiting_boleto_payment -->
<g id="edge7" class="edge">
<title>create_invoice&#45;&gt;waiting_boleto_payment</title>
<path fill="none" stroke="#000000" d="M446.9878,-835.7787C493.9344,-812.3174 560.1454,-779.2288 615.6802,-751.4757"/>
<polygon fill="#000000" stroke="#000000" points="617.47,-754.494 624.8506,-746.8928 614.3408,-748.2323 617.47,-754.494"/>
<text text-anchor="middle" x="547.3867" y="-812.2211" font-family="Times,serif" font-size="14.00" fill="#000000">boleto_generated</text>
</g>
<!-- capture_cc&#45;&gt;refused -->
<g id="edge3" class="edge">
<title>capture_cc&#45;&gt;refused</title>
<path fill="none" stroke="#000000" d="M1092.8439,-1001.6085C1154.6927,-1009.3761 1256.718,-1022.1894 1317.2848,-1029.796"/>
<polygon fill="#000000" stroke="#000000" points="1317.0061,-1033.2884 1327.3643,-1031.0619 1317.8784,-1026.3429 1317.0061,-1033.2884"/>
<text text-anchor="middle" x="1211.4053" y="-1025.2211" font-family="Times,serif" font-size="14.00" fill="#000000">error</text>
</g>
<!-- register_capture -->
<g id="node6" class="node">
<title>register_capture</title>
<ellipse fill="#68ffa7" stroke="#000000" cx="1366.8521" cy="-656.0211" rx="73.4707" ry="73.4707"/>
<text text-anchor="middle" x="1366.8521" y="-651.8211" font-family="Times,serif" font-size="14.00" fill="#000000">register_capture</text>
</g>
<!-- capture_cc&#45;&gt;register_capture -->
<g id="edge4" class="edge">
<title>capture_cc&#45;&gt;register_capture</title>
<path fill="none" stroke="#000000" d="M1088.2459,-971.9284C1107.38,-961.4843 1128.9574,-948.0944 1146.3548,-933.0211 1216.6455,-872.1205 1280.8741,-786.4434 1321.6512,-726.5531"/>
<polygon fill="#000000" stroke="#000000" points="1324.7934,-728.1545 1327.4952,-717.91 1318.9945,-724.2336 1324.7934,-728.1545"/>
<text text-anchor="middle" x="1211.4053" y="-918.2211" font-family="Times,serif" font-size="14.00" fill="#000000">captured</text>
</g>
<!-- pending_registration -->
<g id="node11" class="node">
<title>pending_registration</title>
<ellipse fill="none" stroke="#000000" cx="1637.0758" cy="-656.0211" rx="90.9129" ry="90.9129"/>
<text text-anchor="middle" x="1637.0758" y="-651.8211" font-family="Times,serif" font-size="14.00" fill="#000000">pending_registration</text>
</g>
<!-- register_capture&#45;&gt;pending_registration -->
<g id="edge13" class="edge">
<title>register_capture&#45;&gt;pending_registration</title>
<path fill="none" stroke="#000000" d="M1440.335,-656.0211C1469.668,-656.0211 1503.9332,-656.0211 1535.5728,-656.0211"/>
<polygon fill="#000000" stroke="#000000" points="1535.7435,-659.5212 1545.7435,-656.0211 1535.7435,-652.5212 1535.7435,-659.5212"/>
<text text-anchor="middle" x="1501.6839" y="-660.2211" font-family="Times,serif" font-size="14.00" fill="#000000">error</text>
</g>
<!-- wait_for_compensation -->
<g id="node14" class="node">
<title>wait_for_compensation</title>
<ellipse fill="none" stroke="#000000" cx="102.2145" cy="-272.0211" rx="102.4294" ry="102.4294"/>
<text text-anchor="middle" x="102.2145" y="-267.8211" font-family="Times,serif" font-size="14.00" fill="#000000">wait_for_compensation</text>
</g>
<!-- register_capture&#45;&gt;wait_for_compensation -->
<g id="edge14" class="edge">
<title>register_capture&#45;&gt;wait_for_compensation</title>
<path fill="none" stroke="#000000" d="M1308.0694,-611.8879C1296.0742,-600.4161 1284.6366,-587.2413 1276.4558,-573.0211 1257.8496,-540.6791 1282.2397,-519.7705 1258.4558,-491.0211 1193.8278,-412.9004 1141.781,-424.0211 1040.3925,-424.0211 386.472,-424.0211 386.472,-424.0211 386.472,-424.0211 313.2805,-424.0211 240.682,-384.3489 187.1736,-345.5401"/>
<polygon fill="#000000" stroke="#000000" points="189.2119,-342.6945 179.0865,-339.5757 185.057,-348.3281 189.2119,-342.6945"/>
<text text-anchor="middle" x="720.6429" y="-428.2211" font-family="Times,serif" font-size="14.00" fill="#000000">ok</text>
</g>
<!-- validate_payment -->
<g id="node17" class="node">
<title>validate_payment</title>
<ellipse fill="#60afff" stroke="#000000" cx="1040.3925" cy="-532.0211" rx="79.8759" ry="79.8759"/>
<text text-anchor="middle" x="1040.3925" y="-527.8211" font-family="Times,serif" font-size="14.00" fill="#000000">validate_payment</text>
</g>
<!-- waiting_boleto_payment&#45;&gt;validate_payment -->
<g id="edge25" class="edge">
<title>waiting_boleto_payment&#45;&gt;validate_payment</title>
<path fill="none" stroke="#000000" d="M815.7126,-649.3678C861.8686,-625.2613 916.699,-596.6242 960.6397,-573.6747"/>
<polygon fill="#000000" stroke="#000000" points="962.3163,-576.7477 969.5599,-569.0158 959.0757,-570.543 962.3163,-576.7477"/>
<text text-anchor="middle" x="881.0633" y="-635.2211" font-family="Times,serif" font-size="14.00" fill="#000000">boleto_paid</text>
</g>
<!-- boleto_expired -->
<g id="node19" class="node">
<title>boleto_expired</title>
<ellipse fill="#ffbfc6" stroke="#000000" cx="1040.3925" cy="-699.0211" rx="68.9235" ry="68.9235"/>
<text text-anchor="middle" x="1040.3925" y="-694.8211" font-family="Times,serif" font-size="14.00" fill="#000000">boleto_expired</text>
</g>
<!-- waiting_boleto_payment&#45;&gt;boleto_expired -->
<g id="edge24" class="edge">
<title>waiting_boleto_payment&#45;&gt;boleto_expired</title>
<path fill="none" stroke="#000000" d="M828.0044,-699.0211C871.4902,-699.0211 920.807,-699.0211 960.9652,-699.0211"/>
<polygon fill="#000000" stroke="#000000" points="960.9685,-702.5212 970.9685,-699.0211 960.9684,-695.5212 960.9685,-702.5212"/>
<text text-anchor="middle" x="881.0633" y="-703.2211" font-family="Times,serif" font-size="14.00" fill="#000000">due_reached</text>
</g>
<!-- pending_refund_register -->
<g id="node9" class="node">
<title>pending_refund_register</title>
<ellipse fill="none" stroke="#000000" cx="1040.3925" cy="-281.0211" rx="105.9247" ry="105.9247"/>
<text text-anchor="middle" x="1040.3925" y="-276.8211" font-family="Times,serif" font-size="14.00" fill="#000000">pending_refund_register</text>
</g>
<!-- register_refund -->
<g id="node10" class="node">
<title>register_refund</title>
<ellipse fill="none" stroke="#000000" cx="1040.3925" cy="-70.0211" rx="70.0423" ry="70.0423"/>
<text text-anchor="middle" x="1040.3925" y="-65.8211" font-family="Times,serif" font-size="14.00" fill="#000000">register_refund</text>
</g>
<!-- pending_refund_register&#45;&gt;register_refund -->
<g id="edge10" class="edge">
<title>pending_refund_register&#45;&gt;register_refund</title>
<path fill="none" stroke="#000000" d="M1040.3925,-174.9247C1040.3925,-166.6614 1040.3925,-158.4031 1040.3925,-150.3523"/>
<polygon fill="#000000" stroke="#000000" points="1043.8926,-150.281 1040.3925,-140.2811 1036.8926,-150.2811 1043.8926,-150.281"/>
<text text-anchor="middle" x="1028.9925" y="-153.3505" font-family="Times,serif" font-size="14.00" fill="#000000">try_again</text>
</g>
<!-- register_refund&#45;&gt;pending_refund_register -->
<g id="edge15" class="edge">
<title>register_refund&#45;&gt;pending_refund_register</title>
<path fill="none" stroke="#000000" d="M1059.2388,-137.5642C1059.595,-139.7113 1059.9151,-141.8445 1060.1925,-143.9523 1061.174,-151.4111 1061.6197,-159.0941 1061.6461,-166.8353"/>
<polygon fill="#000000" stroke="#000000" points="1058.143,-166.9655 1061.449,-177.0313 1065.1417,-167.1009 1058.143,-166.9655"/>
<text text-anchor="middle" x="1051.7925" y="-153.3505" font-family="Times,serif" font-size="14.00" fill="#000000">error</text>
</g>
<!-- refunded -->
<g id="node15" class="node">
<title>refunded</title>
<ellipse fill="#ffd6bf" stroke="#000000" cx="1366.8521" cy="-70.0211" rx="45.2073" ry="45.2073"/>
<text text-anchor="middle" x="1366.8521" y="-65.8211" font-family="Times,serif" font-size="14.00" fill="#000000">refunded</text>
</g>
<!-- register_refund&#45;&gt;refunded -->
<g id="edge16" class="edge">
<title>register_refund&#45;&gt;refunded</title>
<path fill="none" stroke="#000000" d="M1110.4262,-70.0211C1170.2693,-70.0211 1255.2454,-70.0211 1310.7051,-70.0211"/>
<polygon fill="#000000" stroke="#000000" points="1311.0456,-73.5212 1321.0456,-70.0211 1311.0456,-66.5212 1311.0456,-73.5212"/>
<text text-anchor="middle" x="1211.4053" y="-74.2211" font-family="Times,serif" font-size="14.00" fill="#000000">ok</text>
</g>
<!-- pending_registration&#45;&gt;register_capture -->
<g id="edge11" class="edge">
<title>pending_registration&#45;&gt;register_capture</title>
<path fill="none" stroke="#000000" d="M1547.4516,-639.3082C1540.9256,-638.4752 1534.4309,-637.7616 1528.1194,-637.2211 1504.7069,-635.2161 1498.6601,-635.2059 1475.2484,-637.2211 1466.6763,-637.959 1457.7646,-639.0193 1448.8983,-640.2657"/>
<polygon fill="#000000" stroke="#000000" points="1448.3059,-636.8152 1438.9277,-641.7448 1449.3331,-643.7394 1448.3059,-636.8152"/>
<text text-anchor="middle" x="1501.6839" y="-642.2211" font-family="Times,serif" font-size="14.00" fill="#000000">try_again</text>
</g>
<!-- pending_transfer -->
<g id="node12" class="node">
<title>pending_transfer</title>
<ellipse fill="none" stroke="#000000" cx="720.6429" cy="-312.0211" rx="76.4266" ry="76.4266"/>
<text text-anchor="middle" x="720.6429" y="-307.8211" font-family="Times,serif" font-size="14.00" fill="#000000">pending_transfer</text>
</g>
<!-- transfer_money -->
<g id="node13" class="node">
<title>transfer_money</title>
<ellipse fill="none" stroke="#000000" cx="386.472" cy="-272.0211" rx="71.7699" ry="71.7699"/>
<text text-anchor="middle" x="386.472" y="-267.8211" font-family="Times,serif" font-size="14.00" fill="#000000">transfer_money</text>
</g>
<!-- pending_transfer&#45;&gt;transfer_money -->
<g id="edge12" class="edge">
<title>pending_transfer&#45;&gt;transfer_money</title>
<path fill="none" stroke="#000000" d="M648.7575,-285.7588C631.5663,-280.588 613.1122,-275.9285 595.5894,-273.2211 553.9245,-266.7837 507.0308,-265.9394 468.2249,-266.9387"/>
<polygon fill="#000000" stroke="#000000" points="467.9142,-263.4465 458.0249,-267.2481 468.1265,-270.4432 467.9142,-263.4465"/>
<text text-anchor="middle" x="547.3867" y="-278.2211" font-family="Times,serif" font-size="14.00" fill="#000000">try_again</text>
</g>
<!-- transfer_money&#45;&gt;pending_transfer -->
<g id="edge18" class="edge">
<title>transfer_money&#45;&gt;pending_transfer</title>
<path fill="none" stroke="#000000" d="M457.3271,-283.9942C471.1855,-286.1499 485.624,-288.2664 499.184,-290.0211 543.6979,-295.7814 593.4164,-300.8442 634.4492,-304.6563"/>
<polygon fill="#000000" stroke="#000000" points="634.1353,-308.1421 644.414,-305.5734 634.7769,-301.1715 634.1353,-308.1421"/>
<text text-anchor="middle" x="547.3867" y="-305.2211" font-family="Times,serif" font-size="14.00" fill="#000000">error</text>
</g>
<!-- transfer_done -->
<g id="node16" class="node">
<title>transfer_done</title>
<ellipse fill="none" stroke="#000000" cx="720.6429" cy="-153.0211" rx="64.2456" ry="64.2456"/>
<text text-anchor="middle" x="720.6429" y="-148.8211" font-family="Times,serif" font-size="14.00" fill="#000000">transfer_done</text>
</g>
<!-- transfer_money&#45;&gt;transfer_done -->
<g id="edge19" class="edge">
<title>transfer_money&#45;&gt;transfer_done</title>
<path fill="none" stroke="#000000" d="M454.0964,-247.9397C511.2744,-227.5783 592.8848,-198.5164 650.7085,-177.9251"/>
<polygon fill="#000000" stroke="#000000" points="651.8898,-181.2198 660.1362,-174.5679 649.5415,-174.6255 651.8898,-181.2198"/>
<text text-anchor="middle" x="547.3867" y="-235.2211" font-family="Times,serif" font-size="14.00" fill="#000000">transferred</text>
</g>
<!-- wait_for_compensation&#45;&gt;register_refund -->
<g id="edge22" class="edge">
<title>wait_for_compensation&#45;&gt;register_refund</title>
<path fill="none" stroke="#000000" d="M195.6698,-230.5098C226.1196,-217.4081 260.2062,-203.1867 291.76,-191.0211 432.9345,-136.5912 464.6701,-106.7779 613.5894,-80.0211 732.8811,-58.5876 873.9204,-60.456 960.2494,-64.6027"/>
<polygon fill="#000000" stroke="#000000" points="960.0787,-68.0984 970.2417,-65.1046 960.4299,-61.1072 960.0787,-68.0984"/>
<text text-anchor="middle" x="547.3867" y="-111.2211" font-family="Times,serif" font-size="14.00" fill="#000000">refunded</text>
</g>
<!-- wait_for_compensation&#45;&gt;transfer_money -->
<g id="edge23" class="edge">
<title>wait_for_compensation&#45;&gt;transfer_money</title>
<path fill="none" stroke="#000000" d="M204.4364,-272.0211C237.1839,-272.0211 273.0071,-272.0211 304.1463,-272.0211"/>
<polygon fill="#000000" stroke="#000000" points="304.5158,-275.5212 314.5158,-272.0211 304.5158,-268.5212 304.5158,-275.5212"/>
<text text-anchor="middle" x="248.0945" y="-276.2211" font-family="Times,serif" font-size="14.00" fill="#000000">done</text>
</g>
<!-- transfer_done&#45;&gt;register_refund -->
<g id="edge17" class="edge">
<title>transfer_done&#45;&gt;register_refund</title>
<path fill="none" stroke="#000000" d="M783.0529,-136.8209C834.4879,-123.4695 907.6871,-104.4686 962.8751,-90.143"/>
<polygon fill="#000000" stroke="#000000" points="963.8125,-93.5157 972.6124,-87.6154 962.0537,-86.7402 963.8125,-93.5157"/>
<text text-anchor="middle" x="881.0633" y="-123.2211" font-family="Times,serif" font-size="14.00" fill="#000000">refunded</text>
</g>
<!-- validate_payment&#45;&gt;register_capture -->
<g id="edge21" class="edge">
<title>validate_payment&#45;&gt;register_capture</title>
<path fill="none" stroke="#000000" d="M1115.2889,-560.4692C1167.1246,-580.1581 1235.9677,-606.307 1288.5313,-626.2723"/>
<polygon fill="#000000" stroke="#000000" points="1287.5577,-629.6464 1298.1488,-629.9254 1290.0433,-623.1026 1287.5577,-629.6464"/>
<text text-anchor="middle" x="1211.4053" y="-617.2211" font-family="Times,serif" font-size="14.00" fill="#000000">paid_amount_ok</text>
</g>
<!-- error_manual_check -->
<g id="node18" class="node">
<title>error_manual_check</title>
<ellipse fill="#ffd6bf" stroke="#000000" cx="1366.8521" cy="-474.0211" rx="90.2927" ry="90.2927"/>
<text text-anchor="middle" x="1366.8521" y="-469.8211" font-family="Times,serif" font-size="14.00" fill="#000000">error_manual_check</text>
</g>
<!-- validate_payment&#45;&gt;error_manual_check -->
<g id="edge20" class="edge">
<title>validate_payment&#45;&gt;error_manual_check</title>
<path fill="none" stroke="#000000" d="M1119.0031,-518.0549C1163.6549,-510.1219 1219.9836,-500.1143 1267.6538,-491.6451"/>
<polygon fill="#000000" stroke="#000000" points="1268.4537,-495.0578 1277.6873,-489.8625 1267.2292,-488.1658 1268.4537,-495.0578"/>
<text text-anchor="middle" x="1211.4053" y="-514.2211" font-family="Times,serif" font-size="14.00" fill="#000000">not_acceptable</text>
</g>
</g>
</svg>
